<?xml version="1.0" encoding="UTF-8"?>
<svg xmlns="http://www.w3.org/2000/svg" version="1.1" viewBox="0 0 66 64">
  <defs>
    <style>
      .cls-1, .cls-2, .cls-3 {
        fill: #fff;
      }

      .cls-4, .cls-5, .cls-2 {
        isolation: isolate;
      }

      .cls-4, .cls-2 {
        font-family: SegoeUI, 'Segoe UI';
        font-size: 11px;
      }

      .cls-4, .cls-6 {
        fill: #ff6920;
      }

      .cls-7 {
        fill: #efebeb;
      }

      .cls-3 {
        fill-opacity: 0;
      }

      .cls-8 {
        fill: none;
        stroke: #ff6920;
      }
    </style>
  </defs>
  <!-- Generator: Adobe Illustrator 28.7.0, SVG Export Plug-In . SVG Version: 1.2.0 Build 136)  -->
  <g>
    <g id="Ebene_1">
      <g id="Gruppe_10540">
        <rect id="Rechteck_294" class="cls-6" x="0" y="0" width="66" height="64" rx="29" ry="29"/>
        <path id="Rechteck_295" class="cls-1" d="M25,20h15c10.5,0,19,8.5,19,19h0c0,10.5-8.5,19-19,19h-15c-10.5,0-19-8.5-19-19h0c0-10.5,8.5-19,19-19Z"/>
        <g id="Rechteck_296">
          <rect class="cls-7" x="6" y="20" width="54" height="38" rx="18" ry="18"/>
          <rect class="cls-8" x="6.5" y="20.5" width="53" height="37" rx="17.5" ry="17.5"/>
        </g>
        <g id="_..." class="cls-5">
          <text class="cls-4" transform="translate(29.6 47.4)"><tspan x="0" y="0">...</tspan></text>
        </g>
        <g id="A.I." class="cls-5">
          <text class="cls-2" transform="translate(14.6 15)"><tspan x="0" y="0">A.I.</tspan></text>
        </g>
        <g id="Gruppe_10539">
          <circle id="Ellipse_2" class="cls-6" cx="21.5" cy="28.5" r="3.5"/>
          <circle id="Ellipse_4" class="cls-7" cx="21.5" cy="30.5" r="3.5"/>
          <circle id="Ellipse_3" class="cls-6" cx="43.5" cy="28.5" r="3.5"/>
          <circle id="Ellipse_5" class="cls-7" cx="43.5" cy="30.5" r="3.5"/>
        </g>
        <circle id="Ellipse_6" class="cls-6" cx="54.5" cy="5.5" r="5.5"/>
        <circle id="Ellipse_7" class="cls-6" cx="10.5" cy="5.5" r="5.5"/>
        <rect id="Rechteck_298" class="cls-3" x="8" y="45" width="51" height="12"/>
      </g>
    </g>
  </g>
</svg>