<?xml version="1.0" encoding="UTF-8" standalone="no"?><!DOCTYPE svg PUBLIC "-//W3C//DTD SVG 1.1//EN" "http://www.w3.org/Graphics/SVG/1.1/DTD/svg11.dtd"><svg width="100%" height="100%" viewBox="0 0 209 100" version="1.1" xmlns="http://www.w3.org/2000/svg" xmlns:xlink="http://www.w3.org/1999/xlink" xml:space="preserve" xmlns:serif="http://www.serif.com/" style="fill-rule:evenodd;clip-rule:evenodd;stroke-linejoin:round;stroke-miterlimit:2;"><g id="Artboard1" transform="matrix(1.0959,0,0,1.16228,-23.0906,-48.8854)"><rect x="21.07" y="42.06" width="190.09" height="85.59" style="fill:none;"/><g transform="matrix(0.912492,0,0,0.86038,29.4511,11.8991)"><g><clipPath id="_clip1"><path d="M110.78,42.06C107.41,42.06 104.67,44.8 104.67,48.17L104.67,53.49L107.74,53.49L107.74,48.18C107.74,46.5 109.11,45.14 110.78,45.13L183.97,45.13C185.65,45.13 187.01,46.5 187.02,48.17L187.02,121.54C187.02,123.22 185.65,124.58 183.98,124.58L110.79,124.58C109.11,124.58 107.75,123.21 107.75,121.54L107.75,116.24L104.68,116.24L104.68,121.54C104.68,124.91 107.42,127.65 110.79,127.65L183.98,127.65C187.35,127.65 190.09,124.91 190.09,121.54L190.09,48.17C190.09,44.8 187.35,42.06 183.98,42.06L110.78,42.06Z"/></clipPath><g clip-path="url(#_clip1)"><g transform="matrix(0.766044,-0.642788,0.642788,0.766044,-20.07,114.58)"><rect x="87.15" y="24.62" width="120.45" height="120.47" style="fill:url(#_Linear2);"/></g></g></g><g><path d="M19.02,96.93L19.02,103.4C19.02,107.4 21,109.43 24.91,109.43L35.56,109.43L35.56,106.39L25.39,106.39C23.17,106.39 22.1,105.28 22.1,102.99L22.1,97.35C22.1,95.09 23.18,93.99 25.39,93.99L35.56,93.99L35.56,90.91L24.91,90.91C21,90.91 19.02,92.94 19.02,96.94" style="fill:rgb(236,102,8);fill-rule:nonzero;"/><path d="M31.74,69.05L24.51,69.05C23.25,69.05 22.66,68.52 22.66,67.37L22.66,65.96C22.66,64.7 23.3,64.11 24.68,64.11L35.15,64.11L35.15,61.38L24.07,61.38C21.14,61.38 19.66,62.81 19.66,65.62L19.66,67.65C19.66,70.28 21.09,71.61 23.9,71.61L31.12,71.61C32.36,71.61 32.94,72.14 32.94,73.29L32.94,75.32C32.94,76.58 32.25,77.17 30.78,77.17L19.83,77.17L19.83,79.9L31.43,79.9C34.43,79.9 35.94,78.46 35.94,75.63L35.94,73.01C35.94,70.38 34.53,69.04 31.74,69.04" style="fill:rgb(87,87,86);fill-rule:nonzero;"/><path d="M50.66,61.38L44.57,61.38C40.66,61.38 38.68,63.41 38.68,67.41L38.68,73.88C38.68,77.88 40.66,79.91 44.57,79.91L50.66,79.91C54.57,79.91 56.55,77.88 56.55,73.88L56.55,67.41C56.55,63.41 54.57,61.38 50.66,61.38M53.47,67.82L53.47,73.46C53.47,75.75 52.39,76.86 50.18,76.86L45.05,76.86C42.83,76.86 41.76,75.75 41.76,73.46L41.76,67.82C41.76,65.56 42.84,64.46 45.05,64.46L50.18,64.46C52.4,64.46 53.47,65.56 53.47,67.82" style="fill:rgb(87,87,86);fill-rule:nonzero;"/><path d="M59.94,58.78L59.94,79.91L62.98,79.91L62.98,64.19L66.97,64.19L66.97,61.39L62.98,61.39L62.98,58.85C62.98,57.35 63.66,56.66 65.1,56.66L67.1,56.66L67.1,53.99L64.58,53.99C61.49,53.99 59.93,55.6 59.93,58.78" style="fill:rgb(87,87,86);fill-rule:nonzero;"/><path d="M74.85,55.53L71.77,55.53L71.77,61.38L68.4,61.38L68.4,64.18L71.77,64.18L71.77,79.91L74.85,79.91L74.85,64.18L78.74,64.18L78.74,61.38L74.85,61.38L74.85,55.53Z" style="fill:rgb(87,87,86);fill-rule:nonzero;"/><path d="M98.35,75.43L94.02,61.38L91.5,61.38L87.03,75.4L83.17,61.59L83.11,61.38L80.33,61.38L85.69,79.91L88.18,79.91L92.73,65.41L97.16,79.91L99.68,79.91L105,61.74L105.1,61.38L102.35,61.38L98.35,75.43Z" style="fill:rgb(87,87,86);fill-rule:nonzero;"/><path d="M118.09,61.38L107.25,61.38L107.25,64.39L117.79,64.39C119.89,64.39 120.91,65.46 120.91,67.65L120.91,73.81C120.91,76.07 119.85,77.17 117.68,77.17L112.21,77.17C110.48,77.17 109.67,76.38 109.67,74.7L109.67,73.88C109.67,72.45 110.47,71.79 112.17,71.79L120.09,71.79L120.09,69.19L111.52,69.19C108.32,69.19 106.69,70.63 106.69,73.46L106.69,74.87C106.69,78.21 108.39,79.9 111.75,79.9L118.08,79.9C121.99,79.9 123.97,77.87 123.97,73.87L123.97,67.4C123.97,63.4 121.99,61.37 118.08,61.37" style="fill:rgb(87,87,86);fill-rule:nonzero;"/><path d="M127.05,67.44L127.05,79.9L130.13,79.9L130.13,67.85C130.13,65.56 131.2,64.45 133.39,64.45L138.07,64.45L138.07,61.4L132.94,61.4C129.03,61.4 127.05,63.43 127.05,67.43" style="fill:rgb(87,87,86);fill-rule:nonzero;"/><path d="M151.38,69.5L143.46,69.5L143.46,72.1L152.07,72.1C155.27,72.1 156.9,70.67 156.9,67.86L156.9,66.42C156.9,63.08 155.19,61.39 151.8,61.39L145.5,61.39C141.59,61.39 139.61,63.42 139.61,67.42L139.61,73.89C139.61,77.89 141.59,79.92 145.5,79.92L156.31,79.92L156.31,76.91L145.81,76.91C143.69,76.91 142.65,75.84 142.65,73.65L142.65,67.49C142.65,65.23 143.72,64.13 145.91,64.13L151.34,64.13C153.07,64.13 153.88,64.91 153.88,66.6L153.88,67.43C153.88,68.86 153.08,69.52 151.38,69.52" style="fill:rgb(87,87,86);fill-rule:nonzero;"/><path d="M12.08,98.57L4.86,98.57C3.6,98.57 3.01,98.04 3.01,96.89L3.01,95.48C3.01,94.22 3.65,93.63 5.03,93.63L15.5,93.63L15.5,90.9L4.41,90.9C1.48,90.9 0,92.33 0,95.14L0,97.17C0,99.8 1.43,101.13 4.24,101.13L11.47,101.13C12.71,101.13 13.28,101.66 13.28,102.81L13.28,104.84C13.28,106.1 12.59,106.69 11.12,106.69L0.17,106.69L0.17,109.42L11.77,109.42C14.77,109.42 16.29,107.98 16.29,105.15L16.29,102.53C16.29,99.94 14.84,98.56 12.08,98.56" style="fill:rgb(236,102,8);fill-rule:nonzero;"/><path d="M51.84,90.9L43.11,90.9L43.11,83.51L40.03,83.51L40.03,109.43L43.11,109.43L43.11,93.98L51.36,93.98C53.58,93.98 54.65,95.08 54.65,97.34L54.65,109.42L57.73,109.42L57.73,96.93C57.73,92.93 55.75,90.9 51.84,90.9" style="fill:rgb(236,102,8);fill-rule:nonzero;"/><path d="M82.08,90.9L60.98,90.9L60.98,109.42L64.02,109.42L64.02,93.94L72.95,93.94L72.95,109.42L75.93,109.42L75.93,93.94L81.6,93.94C83.77,93.94 84.83,95.05 84.83,97.34L84.83,109.42L87.91,109.42L87.91,96.93C87.91,92.93 85.95,90.9 82.09,90.9" style="fill:rgb(236,102,8);fill-rule:nonzero;"/><rect x="91.5" y="83.5" width="3.08" height="4.56" style="fill:rgb(236,102,8);"/><rect x="91.5" y="91.07" width="3.08" height="18.35" style="fill:rgb(236,102,8);"/><path d="M110.26,90.9L103.96,90.9C100.05,90.9 98.07,92.93 98.07,96.93L98.07,103.4C98.07,107.4 100.05,109.43 103.96,109.43L114.77,109.43L114.77,106.42L104.27,106.42C102.15,106.42 101.11,105.35 101.11,103.16L101.11,97C101.11,94.74 102.18,93.64 104.37,93.64L109.81,93.64C111.54,93.64 112.35,94.43 112.35,96.11L112.35,96.94C112.35,98.37 111.55,99.03 109.85,99.03L101.93,99.03L101.93,101.63L110.54,101.63C113.74,101.63 115.37,100.2 115.37,97.39L115.37,95.95C115.37,92.61 113.66,90.92 110.27,90.92" style="fill:rgb(236,102,8);fill-rule:nonzero;"/><path d="M133.09,102.98C133.09,105.27 132.01,106.38 129.79,106.38L124.84,106.38C122.62,106.38 121.54,105.27 121.54,102.98L121.54,97.34C121.54,95.08 122.62,93.98 124.84,93.98L132.28,93.98L132.28,90.9L124.36,90.9C120.45,90.9 118.47,92.93 118.47,96.93L118.47,103.4C118.47,107.4 120.45,109.43 124.36,109.43L130.28,109.43C134.19,109.43 136.17,107.4 136.17,103.4L136.17,83.51L133.09,83.51L133.09,102.99L133.09,102.98Z" style="fill:rgb(236,102,8);fill-rule:nonzero;"/><path d="M151.33,99.02L143.41,99.02L143.41,101.62L152.02,101.62C155.22,101.62 156.84,100.19 156.84,97.38L156.84,95.94C156.84,92.6 155.13,90.91 151.74,90.91L145.44,90.91C141.53,90.91 139.55,92.94 139.55,96.94L139.55,103.41C139.55,107.41 141.53,109.44 145.44,109.44L156.25,109.44L156.25,106.43L145.75,106.43C143.63,106.43 142.59,105.36 142.59,103.17L142.59,97.01C142.59,94.75 143.66,93.65 145.85,93.65L151.28,93.65C153.01,93.65 153.82,94.43 153.82,96.12L153.82,96.95C153.82,98.38 153.02,99.04 151.32,99.04" style="fill:rgb(236,102,8);fill-rule:nonzero;"/></g></g></g><defs><linearGradient id="_Linear2" x1="0" y1="0" x2="1" y2="0" gradientUnits="userSpaceOnUse" gradientTransform="matrix(115.45,0,0,115.45,88.227,84.029)"><stop offset="0" style="stop-color:rgb(242,142,0);stop-opacity:1"/><stop offset="0.08" style="stop-color:rgb(240,130,2);stop-opacity:1"/><stop offset="0.32" style="stop-color:rgb(235,99,8);stop-opacity:1"/><stop offset="0.57" style="stop-color:rgb(232,77,13);stop-opacity:1"/><stop offset="0.8" style="stop-color:rgb(230,63,16);stop-opacity:1"/><stop offset="1" style="stop-color:rgb(230,59,17);stop-opacity:1"/></linearGradient></defs></svg>